Coordinates
version=1
nRows=11
nColumns=63
inDegrees=yes

Units are S.I. units (second, meters, Newtons, ...)
If the header above contains a line with 'inDegrees', this indicates whether rotational values are in degrees (yes) or radians (no).

endheader
time	pelvis_tilt	pelvis_list	pelvis_rotation	pelvis_tx	pelvis_ty	pelvis_tz	hip_flexion_r	hip_adduction_r	hip_rotation_r	knee_angle_r	knee_angle_r_beta	ankle_angle_r	subtalar_angle_r	mtp_angle_r	hip_flexion_l	hip_adduction_l	hip_rotation_l	knee_angle_l	knee_angle_l_beta	ankle_angle_l	subtalar_angle_l	mtp_angle_l	L5_S1_Flex_Ext	L5_S1_Lat_Bending	L5_S1_axial_rotation	L4_L5_Flex_Ext	L4_L5_Lat_Bending	L4_L5_axial_rotation	L3_L4_Flex_Ext	L3_L4_Lat_Bending	L3_L4_axial_rotation	L2_L3_Flex_Ext	L2_L3_Lat_Bending	L2_L3_axial_rotation	L1_L2_Flex_Ext	L1_L2_Lat_Bending	L1_L2_axial_rotation	L1_T12_Flex_Ext	L1_T12_Lat_Bending	L1_T12_axial_rotation	Abs_r3	Abs_r2	Abs_r1	Abs_t1	Abs_t2	neck_flexion	neck_bending	neck_rotation	arm_flex_r	arm_add_r	arm_rot_r	elbow_flex_r	pro_sup_r	wrist_flex_r	wrist_dev_r	arm_flex_l	arm_add_l	arm_rot_l	elbow_flex_l	pro_sup_l	wrist_flex_l	wrist_dev_l
0.728814	-9.916907	-1.323559	72.039844	0.263408	0.407398	0.930684	-0.992370	-5.134398	-0.417894	1.990048	0.034733	16.645547	2.651360	0.000000	0.992568	5.475741	-23.598365	8.643058	0.150850	14.903636	15.996386	0.000000	-0.609529	-0.920830	-0.980919	-1.131957	-1.224703	-1.042227	-1.001395	-2.238905	-1.042227	-0.696631	-2.238905	-0.858304	-0.566009	-1.877756	-0.796997	-0.348285	-1.426365	-0.735689	-4.353805	-10.416609	-5.455578	0.000000	0.000000	1.031933	11.358710	-5.198093	21.640790	-3.029260	25.996871	142.345452	88.275787	-12.029787	14.104576	0.338536	-22.946087	21.846513	30.650298	80.238348	-16.225965	1.674820
0.745763	-9.944374	-1.309876	72.383120	0.262874	0.407300	0.930774	-1.034098	-5.144577	-0.886792	1.989473	0.034723	16.780630	2.792088	0.000000	1.048440	5.540129	-23.134243	8.656229	0.151080	15.045630	16.034344	0.000000	-0.628049	-0.930715	-1.126700	-1.166350	-1.237851	-1.197119	-1.031822	-2.262941	-1.197119	-0.717797	-2.262941	-0.985862	-0.583206	-1.897915	-0.915444	-0.358867	-1.441678	-0.845025	-4.486092	-10.528439	-6.266367	0.000000	0.000000	1.041185	12.043777	-4.948777	23.289614	-2.674101	26.455321	143.169833	88.498825	-11.775145	14.299597	-0.681102	-23.335268	20.511248	29.927758	79.429360	-15.466673	2.546370
0.762712	-9.956871	-1.294493	72.736770	0.262313	0.407143	0.930816	-1.069793	-5.140456	-1.469774	2.018161	0.035224	17.001063	3.095711	0.000000	1.085191	5.593887	-22.646100	8.646693	0.150913	15.206426	16.041669	0.000000	-0.644788	-0.938086	-1.265936	-1.197435	-1.247654	-1.345057	-1.059321	-2.280862	-1.345057	-0.736928	-2.280862	-1.107694	-0.598750	-1.912944	-1.028573	-0.368432	-1.453095	-0.949452	-4.605653	-10.611814	-7.040755	0.000000	0.000000	1.223158	12.634506	-4.718316	24.745027	-2.294768	26.805123	143.621080	88.739689	-11.483121	14.522170	-1.693041	-23.689856	19.462811	29.260687	78.684048	-14.810534	3.274587
0.779661	-9.949650	-1.275185	73.108907	0.261712	0.406930	0.930774	-1.110857	-5.115837	-2.089146	2.060177	0.035957	17.279858	3.444883	0.000000	1.099360	5.628901	-22.178592	8.623922	0.150516	15.395664	16.067947	0.000000	-0.659430	-0.942253	-1.398247	-1.224627	-1.253197	-1.485637	-1.083377	-2.290994	-1.485637	-0.753662	-2.290994	-1.223466	-0.612346	-1.921443	-1.136075	-0.376798	-1.459550	-1.048685	-4.710239	-10.658957	-7.776628	0.000000	0.000000	1.519765	13.115964	-4.524619	25.993002	-1.924644	27.050029	143.791422	88.966256	-11.191067	14.769789	-2.691309	-23.974623	18.484872	28.640740	78.270907	-14.199522	3.860675
0.796610	-9.917589	-1.249716	73.506320	0.261035	0.406677	0.930632	-1.159786	-5.073379	-2.851905	2.124369	0.037077	17.619966	3.968923	0.000000	1.085919	5.646878	-21.659391	8.584707	0.149831	15.595924	16.008541	0.000000	-0.672499	-0.941875	-1.520739	-1.248899	-1.252694	-1.615785	-1.104849	-2.290074	-1.615785	-0.768600	-2.290074	-1.330646	-0.624483	-1.920671	-1.235600	-0.384266	-1.458964	-1.140554	-4.803597	-10.654677	-8.457891	0.000000	0.000000	1.850577	13.467799	-4.374174	27.037297	-1.610578	27.207845	143.771805	89.142685	-10.949331	14.984052	-3.587815	-24.222540	17.959733	28.022242	77.731948	-13.614223	4.257238
0.813559	-9.860981	-1.223072	73.923672	0.260275	0.406391	0.930389	-1.208623	-5.013333	-3.729571	2.214226	0.038646	18.003917	4.625383	0.000000	1.049185	5.646288	-21.111556	8.527633	0.148835	15.801893	15.884035	0.000000	-0.684204	-0.936761	-1.630784	-1.270634	-1.245892	-1.732708	-1.124078	-2.277641	-1.732708	-0.781976	-2.277641	-1.426936	-0.635351	-1.910243	-1.325012	-0.390954	-1.451043	-1.223088	-4.887198	-10.596828	-9.069930	0.000000	0.000000	2.162108	13.699321	-4.279008	27.888568	-1.382935	27.301488	143.644426	89.248662	-10.767557	15.112649	-4.360513	-24.423722	17.804336	27.421786	77.040640	-13.018107	4.504155
0.830508	-9.785362	-1.199524	74.351280	0.259414	0.406080	0.930061	-1.241432	-4.943734	-4.661536	2.347615	0.040974	18.428413	5.334558	0.000000	1.003221	5.631335	-20.561743	8.465186	0.147745	16.008385	15.703244	0.000000	-0.695187	-0.926806	-1.730269	-1.291031	-1.232652	-1.838411	-1.142122	-2.253437	-1.838411	-0.794529	-2.253437	-1.513985	-0.645550	-1.889944	-1.405844	-0.397230	-1.435623	-1.297702	-4.965649	-10.484219	-9.623237	0.000000	0.000000	2.420574	13.820626	-4.195421	28.582372	-1.236793	27.364225	143.474160	89.305838	-10.615100	15.232716	-5.016417	-24.555479	17.878569	26.835352	76.201710	-12.391077	4.517834
0.847458	-9.696032	-1.173175	74.786160	0.258503	0.405783	0.929607	-1.287770	-4.865201	-5.650595	2.475392	0.043204	18.847323	6.094328	0.000000	0.933669	5.608364	-20.007276	8.380941	0.146275	16.216776	15.504055	0.000000	-0.706708	-0.913330	-1.815426	-1.312428	-1.214729	-1.928891	-1.161051	-2.220671	-1.928891	-0.807697	-2.220671	-1.588498	-0.656249	-1.862463	-1.475034	-0.403813	-1.414748	-1.361570	-5.047947	-10.331772	-10.096857	0.000000	0.000000	2.596128	13.861375	-4.142614	29.120095	-1.172112	27.418859	143.302172	89.331185	-10.511698	15.298530	-5.560152	-24.627640	18.067398	26.324920	75.085778	-11.662451	4.484566
0.864407	-9.606513	-1.155158	75.219918	0.257529	0.405495	0.929114	-1.308985	-4.795211	-6.659601	2.640481	0.046085	19.281586	6.868871	0.000000	0.873389	5.585610	-19.475953	8.298129	0.144830	16.434481	15.295409	0.000000	-0.718763	-0.897001	-1.894279	-1.334816	-1.193011	-2.012672	-1.180857	-2.180968	-2.012672	-0.821475	-2.180968	-1.657495	-0.667444	-1.829165	-1.539102	-0.410701	-1.389455	-1.420710	-5.134056	-10.147055	-10.535414	0.000000	0.000000	2.697520	13.824004	-4.034191	29.567997	-1.143212	27.525895	143.131937	89.346392	-10.468562	15.418978	-6.040866	-24.627185	18.238247	25.859717	73.828532	-10.869990	4.163772
0.881356	-9.526997	-1.158069	75.601349	0.256546	0.405204	0.928611	-1.282392	-4.742073	-7.603173	2.842068	0.049603	19.720046	7.621478	0.000000	0.836710	5.572325	-18.997410	8.209993	0.143291	16.663754	15.072638	0.000000	-0.729384	-0.879030	-1.950199	-1.354538	-1.169111	-2.072086	-1.198304	-2.137275	-2.072086	-0.833613	-2.137275	-1.706424	-0.677306	-1.792519	-1.584537	-0.416770	-1.361618	-1.462649	-5.209914	-9.943768	-10.846422	0.000000	0.000000	2.739248	13.712470	-3.956087	29.920665	-1.143483	27.647476	142.979871	89.342361	-10.433149	15.575064	-6.412511	-24.564546	18.556439	25.380554	72.551439	-10.159191	3.474367
0.898305	-9.456766	-1.181897	75.954724	0.255532	0.404911	0.928101	-1.223848	-4.703829	-8.490247	3.060234	0.053411	20.134589	8.329450	0.000000	0.826434	5.565086	-18.554630	8.123148	0.141776	16.909259	14.871822	0.000000	-0.739360	-0.859518	-1.994044	-1.373065	-1.143160	-2.118672	-1.214694	-2.089833	-2.118672	-0.845014	-2.089833	-1.744789	-0.686569	-1.752730	-1.620161	-0.422470	-1.331394	-1.495533	-5.281171	-9.723044	-11.090275	0.000000	0.000000	2.763054	13.584886	-3.813662	30.231980	-1.161438	27.812733	142.856305	89.348402	-10.433698	15.900783	-6.735094	-24.442591	18.974384	24.922323	71.379398	-9.758755	2.368137
